<svg width="186" height="185" viewBox="0 0 186 185" fill="none" xmlns="http://www.w3.org/2000/svg">
<path d="M64.4642 64.6692C60.6149 61.9048 57.8049 59.8699 54.9948 57.8734C43.6778 49.7721 32.2838 41.7093 21.0437 33.4928C18.3492 31.5347 15.8086 29.1159 13.9225 26.4283C12.8447 24.8157 12.4982 21.9361 13.2296 20.2467C13.653 19.2485 17.1174 18.711 18.7726 19.2869C22.8144 20.6307 26.7407 22.4736 30.4361 24.5853C41.9456 31.2276 53.3396 38.1002 65.2341 45.1648C66.3119 38.1002 67.2357 31.074 68.5445 24.1246C69.5453 18.7493 70.9311 13.3741 72.4323 8.11407C73.3946 4.69696 75.4348 1.74058 79.5536 2.3165C83.8263 2.89242 85.2121 6.27114 85.1351 10.0722C84.9811 21.3986 84.5962 32.6866 84.3652 44.0129C84.2883 46.7005 84.3652 49.3882 84.3652 52.0758C84.7887 52.4597 88.407 49.2346 90.1007 47.5836C104.574 33.4544 119.048 19.4021 133.675 5.42646C135.715 3.46834 138.294 1.81737 140.912 0.742326C142.298 0.166409 144.915 0.588749 145.839 1.58701C146.763 2.58526 146.955 5.19609 146.301 6.5399C145.069 9.11233 143.222 11.4544 141.258 13.5661C128.363 27.6953 115.391 41.7477 102.457 55.8384C101.033 57.3742 99.6086 58.9868 97.4915 61.3289C107.192 60.6378 115.93 59.8699 124.668 59.4091C142.259 58.5261 159.889 57.7966 177.481 57.0287C178.558 56.9903 179.713 56.9903 180.637 57.1823C186.68 58.4493 186.142 64.4772 181.599 65.2451C176.056 66.2049 170.475 67.3952 164.855 67.9711C144.723 69.9676 124.591 71.7338 104.459 73.6151C104.035 73.6535 103.65 73.8071 102.38 74.1526C107.923 78.4912 113.043 82.4842 118.162 86.4389C127.824 93.9642 137.602 101.374 147.109 109.053C149.65 111.127 151.883 113.853 153.499 116.694C155.231 119.688 153.422 122.261 150.112 121.455C146.07 120.418 141.913 118.767 138.487 116.425C121.781 105.06 105.306 93.3499 88.7535 81.7547C86.9058 80.4493 85.0581 79.1439 82.3636 77.1858C81.7862 85.9013 81.3243 93.7338 80.7084 101.566C78.8607 124.872 77.013 148.177 75.0884 171.483C74.8574 174.055 74.357 176.666 73.5871 179.123C72.5478 182.502 70.2382 184.729 66.5043 184.46C63.0015 184.191 60.9613 181.849 60.3454 178.547C59.768 175.399 59.4601 172.174 59.4986 168.987C59.7295 148.177 60.076 127.406 60.3839 106.596C60.4224 105.06 60.3839 103.563 60.3839 100.914C58.6132 102.603 57.3814 103.716 56.1881 104.907C42.8694 118.191 29.5508 131.514 16.1936 144.799C14.6923 146.296 12.9986 147.793 11.074 148.638C9.76519 149.214 7.45559 149.175 6.45477 148.369C5.45394 147.563 5.22298 145.298 5.22298 143.954C5.26148 139.73 7.53258 137.849 9.53423 135.43C21.3132 121.186 33.2846 107.057 45.333 93.0043C49.6828 87.9362 54.4174 83.2137 59.999 77.301C49.5673 78.4912 40.5214 79.643 31.4754 80.4877C22.7759 81.294 14.0764 81.7931 5.33846 82.4074C4.41462 82.4842 3.45229 82.3306 2.60544 82.2155C-1.8213 81.6779 0.680772 76.9938 1.95105 76.6867C10.689 74.5366 19.504 72.4633 28.3575 70.8507C38.8661 69.0461 62.0776 65.4755 64.4642 64.6692Z" fill="black"/>
</svg>
