<svg width="195" height="93" viewBox="0 0 195 93" fill="none" xmlns="http://www.w3.org/2000/svg">
<path d="M165.824 30.7539C160.782 33.6289 156.574 36.1706 152.24 38.4622C144.907 42.3789 137.49 45.9206 128.949 46.5039C120.282 47.0873 113.49 43.7956 109.407 36.3372C106.907 31.7539 105.657 26.5039 104.032 21.5039C103.407 19.5456 103.324 17.3789 102.824 14.3372C100.324 18.1706 98.4071 21.2122 96.3654 24.1706C91.4071 31.4206 86.7404 38.8789 81.3238 45.7539C73.9488 55.2122 64.6571 56.0039 55.4071 48.2539C51.7821 45.2123 48.8654 41.2539 45.6571 37.6706C44.6988 36.5872 43.9071 35.3789 42.8654 34.0039C40.9904 42.1289 39.3238 49.8789 37.3654 57.5039C32.7821 75.2956 18.5321 74.6706 8.40709 66.8789C5.69876 64.7956 3.44876 62.0039 1.24042 59.3372C-0.176244 57.5039 -0.467909 55.1289 1.57376 53.5872C3.40709 52.1706 5.32376 53.1706 6.90709 54.6706C8.49042 56.1289 9.99042 57.7122 11.6988 58.9622C13.6988 60.4206 15.7404 61.8789 17.9904 62.9206C24.3238 65.8372 28.5738 64.3372 31.1571 57.8372C32.9904 53.2539 34.1571 48.3789 35.3654 43.5872C36.4904 39.1289 37.4071 34.5872 38.3238 30.0456C38.8238 27.7122 39.4071 25.3789 41.9488 24.5872C44.8654 23.6706 46.6154 25.7122 48.2404 27.5872C50.3238 29.9622 52.0321 32.6289 54.2404 34.8789C56.9904 37.7539 59.8238 40.5872 62.9488 42.9622C67.1988 46.1706 70.2821 46.0039 74.0321 42.2122C77.6154 38.5872 81.0738 34.6706 84.0321 30.5039C90.3238 21.5456 96.2821 12.4206 102.24 3.25391C103.657 1.08725 105.199 -0.412745 107.824 0.0872549C110.324 0.545588 111.115 2.58725 111.449 4.87892C112.032 8.96225 112.449 13.1289 113.24 17.1706C113.949 20.7122 114.74 24.3372 116.074 27.6706C119.615 36.5872 125.115 39.4206 134.532 37.7956C141.615 36.5872 148.24 34.0456 154.532 30.6706C159.074 28.2539 163.449 25.5456 167.865 22.9623C170.199 21.5873 172.615 20.1706 175.199 22.2123C177.615 24.1706 177.199 26.9206 176.657 29.5873C176.407 30.7123 175.99 31.7956 175.615 32.8789C174.824 35.0456 174.157 37.2956 173.157 39.3789C165.824 54.9206 170.949 67.7123 181.99 79.0456C184.032 81.1289 186.74 82.5873 189.199 84.2539C190.407 85.0873 191.907 85.5873 192.99 86.5456C193.782 87.2123 194.657 88.5456 194.449 89.3372C194.24 90.2122 192.907 91.0456 192.032 91.4623C190.115 92.3373 187.532 92.0872 185.699 91.3372C182.074 89.8372 178.407 88.0456 175.407 85.5873C168.74 80.1706 164.115 73.0872 160.74 65.1706C157.865 58.4206 158.24 51.5456 160.449 44.7539C161.949 40.3373 163.782 36.0872 165.824 30.7539Z" fill="black"/>
</svg>
