<svg width="78" height="78" viewBox="0 0 78 78" fill="none" xmlns="http://www.w3.org/2000/svg">
<path d="M69.6583 24.7408C70.0781 25.2012 70.1323 25.8783 69.8073 26.42C69.5094 26.921 69.2521 27.3544 68.9541 27.7606C65.8667 32.0398 64.1739 34.2742 61.1271 38.5804C60.3552 39.6637 58.4864 42.9815 57.7687 44.119C57.7552 44.1325 57.7552 44.146 57.7417 44.1596C57.0917 45.1346 55.4937 45.0669 54.9792 43.9971C54.9792 43.9971 54.9792 43.9835 54.9656 43.9835C54.2073 42.3179 53.5979 40.5981 52.8937 38.9054C50.9573 34.2335 48.2625 30.1846 43.7802 27.5304C42.1552 26.569 42.1281 25.8648 43.3875 24.47C43.8614 23.9554 44.3354 23.4273 44.85 22.9669C49.8198 18.5387 53.2458 13.0679 55.8052 6.97417C55.9677 6.595 56.2927 6.29708 56.6448 5.99917C57.1052 5.62 57.7687 5.67417 58.175 6.1075C58.5135 6.45958 58.825 6.83875 59.0146 7.25854C59.4344 8.23354 59.5427 9.33042 59.8 10.3731C61.1812 16.0471 64.2552 20.57 68.9271 24.0502C69.1844 24.2398 69.4146 24.4835 69.6583 24.7408ZM57.2135 11.145C55.6021 13.8262 54.2479 16.5887 52.4062 18.9992C50.5239 21.4502 48.1677 23.5356 46.0146 25.7971C51.4854 29.0742 54.6542 34.2606 56.5635 40.6252C59.3667 34.8294 63.2396 30.2252 67.4917 25.919C60.775 20.8002 59.1771 18.4846 57.2135 11.145Z" fill="black"/>
<path d="M18.5927 71.4733C17.3604 67.9796 16.2906 64.4181 14.9364 60.9785C13.6094 57.6473 11.6323 54.6817 8.78852 52.3931C7.74581 51.5535 7.77289 50.7952 8.62602 49.8473C13.4198 44.6337 17.1031 38.7296 19.7437 32.1619C20.0281 31.4577 20.7864 30.3337 21.3146 30.3337C22.75 29.9952 23.2646 32.7983 23.3187 33.0556C24.5239 39.664 28.6135 44.4712 33.2041 48.9671C34.6937 50.4296 34.8156 50.8765 33.3531 52.2848C27.8416 57.566 24.1854 64.066 21.0437 70.9046C20.0552 73.2879 18.7416 71.8931 18.5927 71.4733ZM10.4406 50.7817C13.3656 52.6369 15.3021 55.115 16.7104 57.9181C18.0781 60.6671 19.0802 63.5785 20.2177 66.3681C22.8448 60.491 26.3927 55.0608 31.7823 50.9306C26.5687 46.8275 22.4521 42.1421 21.1927 35.4254C18.9312 41.465 15.3427 46.489 10.4406 50.7817Z" fill="#81ADC8"/>
<path d="M55.602 56.9024C52.6093 60.9243 50.7812 65.5149 49.102 70.1868C48.9937 70.4847 48.6416 72.1774 47.3551 72.1639C46.9895 72.1639 46.3801 71.5816 46.1499 71.1212C45.1343 69.0493 44.4978 66.7337 43.2114 64.8649C41.6947 62.6441 39.6093 60.8159 37.8489 58.7712C37.5916 58.4732 37.4968 57.7962 37.6593 57.4305C37.9708 56.7534 38.526 56.2118 38.9593 55.5889C41.1666 52.3389 43.3333 49.0618 45.6083 45.8659C46.0822 45.2024 47.0166 44.4034 47.5718 44.4034C48.953 44.3899 49.2239 45.4732 49.4676 46.2451C50.578 49.793 52.4874 52.7587 55.2635 55.2097C56.252 56.1305 55.7239 56.7399 55.602 56.9024ZM40.3947 57.8368C43.6176 60.1253 45.8114 63.4295 47.1385 67.1264C49.102 63.5243 51.1062 59.8545 53.1645 56.0628C50.402 54.1534 48.4791 50.592 47.5989 47.9649C45.1885 51.2691 42.8051 54.5326 40.3947 57.8368Z" fill="#CD4631"/>
</svg>
