<svg width="67" height="66" viewBox="0 0 67 66" fill="none" xmlns="http://www.w3.org/2000/svg">
<path d="M5.71171 20.9494C9.35441 16.6702 13.3492 12.5807 17.7638 9.10045C20.8377 6.67649 21.894 6.55462 23.5867 6.0942C24.0471 5.97233 24.4534 5.68795 24.8461 5.40358C41.3263 -6.22871 62.3294 2.01816 66.3919 22.5473C69.0867 36.1702 62.1398 49.6984 50.1961 55.2234C50.0065 55.3182 49.7221 55.3452 49.6273 55.4942C47.2575 59.2046 42.4367 60.64 39.4982 61.3713C38.9023 61.588 38.4419 62.2109 37.9003 62.6171C37.4805 62.9286 37.0607 63.2671 36.5867 63.4838C21.0544 70.688 4.35754 61.0463 0.701289 45.0942C0.186706 42.8463 -2.07475 29.2775 5.71171 20.9494ZM38.0628 54.3567C43.6013 54.3296 47.2169 53.4223 50.4534 51.6484C66.0263 43.1036 68.3555 19.8932 54.6513 8.55879C46.7971 2.07233 36.7492 0.975452 27.92 7.19108C17.4252 14.5713 13.62 29.6973 19.4971 41.1265C23.7221 49.3463 30.4253 53.8827 38.0628 54.3567ZM43.3575 57.864C44.0346 57.6202 44.1294 57.4442 44.0211 57.363C44.0211 57.363 43.7367 57.363 43.2628 57.3765C31.0753 58.2973 21.9075 53.4494 16.4773 42.5213C11.169 31.8505 12.4555 21.3692 18.7252 11.3348C18.2242 11.5786 17.818 11.8765 17.4523 12.215C9.00233 19.8661 6.51066 32.8255 11.3857 43.9025C15.8815 54.1265 25.32 60.1932 35.9367 59.4348C38.4284 59.2588 40.8794 58.4057 43.3575 57.864ZM7.56691 22.7369C7.58046 22.3442 7.21483 22.8317 7.16066 22.8994C6.97108 23.1567 6.7815 23.4275 6.619 23.6984C4.38462 27.463 2.98983 31.539 2.80025 35.913C2.35337 45.8796 5.84712 54.14 14.2836 59.7734C19.8898 63.5244 26.119 64.2963 32.6325 62.265C23.1127 61.3036 15.6919 56.889 10.6815 48.7369C5.67108 40.6119 4.87212 31.8911 7.56691 22.7369Z" fill="black"/>
<path d="M48.3544 31.4171C50.2232 31.4848 50.8325 32.4598 50.2232 34.2202C48.7065 38.5536 44.4409 40.6661 40.094 39.1494C37.5211 38.2421 35.5034 36.59 34.1086 34.2338C33.0388 32.4192 33.5128 31.3765 35.6117 31.2411C37.8055 31.0921 46.3096 31.3359 48.3544 31.4171ZM47.9346 33.5296C44.1971 33.5296 40.5544 33.5296 36.8711 33.5296C40.6086 37.8765 46.1336 37.9577 47.9346 33.5296Z" fill="black"/>
<path d="M33.1199 23.7393C33.1334 25.8518 31.1022 27.7747 28.8814 27.7611C26.9449 27.7476 25.5907 26.0007 25.5772 24.1455C25.5501 22.2903 27.4459 20.4622 29.5314 20.408C31.5355 20.3403 33.1199 21.8028 33.1199 23.7393ZM29.0574 22.3986C28.0553 22.5611 27.7439 23.5091 27.8251 24.2268C27.9334 25.2695 28.7189 25.5268 29.2064 25.5403C29.6668 25.5539 30.5741 25.0934 30.7637 24.1997C31.0074 23.2924 30.4928 22.0601 29.0574 22.3986Z" fill="#CD4631"/>
<path d="M58.998 24.3078C58.9709 26.3526 57.522 27.8557 55.5855 27.8422C53.5001 27.8286 51.997 26.1359 52.0647 23.8745C52.1189 21.9109 53.5814 20.3943 55.3959 20.4349C57.2782 20.489 59.0251 22.3578 58.998 24.3078ZM57.1293 24.2536C57.1293 23.2109 56.5741 22.5068 55.7074 22.5068C55.1793 22.5068 54.2855 22.913 54.2855 24.0234C54.2855 25.9599 55.7074 25.8515 55.7074 25.8515C56.4657 25.8245 57.1293 25.513 57.1293 24.2536Z" fill="#81ADC8"/>
</svg>
