<svg width="78" height="79" viewBox="0 0 78 79" fill="none" xmlns="http://www.w3.org/2000/svg">
<path d="M53.6792 23.7124C53.3406 27.0572 53.0969 29.8468 52.7583 32.6228C52.5688 34.1395 51.9458 35.453 50.2396 35.8186C48.8177 36.1166 47.3417 35.3311 46.4885 33.5843C45.6625 31.9051 45.0667 30.1041 44.4438 28.3301C42.6427 23.2384 39.8667 18.7155 36.4271 14.5853C35.3573 13.2989 34.301 12.0124 33.0688 10.5228C32.7979 11.4301 32.5813 12.1614 32.3646 12.8926C30.0625 20.8416 29.2771 28.9395 29.6292 37.1863C29.7375 39.8541 29.426 42.5759 29.0469 45.2301C28.8031 46.9364 28.1667 48.6697 26.1083 49.0489C24.6323 49.3197 23.1698 48.1009 22.276 45.8801C21.6802 44.3905 21.2875 42.8061 20.7458 41.2895C20.4479 40.4363 20.0146 39.6374 19.6219 38.7436C14.6521 44.7832 18.4438 64.703 25.0656 67.6145C25.0927 62.2791 27.5438 57.8645 30.4417 53.6936C34.5448 47.7895 36.7792 41.2624 37.524 34.1666C37.5781 33.6384 37.6865 33.0968 37.7812 32.5822C38.2417 30.1718 39.2302 29.7791 41.0312 31.5666C42.1958 32.7176 43.225 34.1395 43.9021 35.6155C47.2604 42.8468 48.6552 50.3488 46.3802 58.2301C46.1229 59.0968 45.5406 60.3155 45.974 60.9384C46.7323 61.8864 47.924 60.2613 48.1813 59.5978C48.8583 57.8509 49.2781 56.0228 49.8198 54.2218C50.1583 53.0978 50.3615 51.8655 50.9708 50.8905C51.4448 50.1322 52.474 49.1978 53.1781 49.2655C53.9094 49.3332 54.925 50.3759 55.1688 51.1884C56.9563 57.2416 56.1167 62.7801 50.5375 67.4791C47.6667 69.903 44.1323 70.6884 40.5167 71.1624C36.4406 71.6905 32.4188 71.853 28.3292 70.9186C26.3792 70.4718 24.3479 70.1738 23.1698 69.7405C21.9917 69.3072 20.9896 68.427 20.5156 67.6957C14.4896 58.3926 13.501 48.5884 17.7396 38.3103C18.6198 36.1843 20.3125 35.7374 21.8021 37.4978C22.899 38.7978 23.5219 40.5447 24.2125 42.1697C24.6865 43.3072 24.9438 44.5395 25.2688 45.7311C25.675 47.2207 26.2708 47.4509 26.6771 47.1936C27.1781 47.0447 27.476 45.2436 27.4219 43.4426C27.3271 40.477 27.3813 37.4978 27.0698 34.5593C26.1625 25.9468 28.2615 17.8759 31.3219 9.9676C32.0802 7.99052 32.9469 7.74677 34.5719 9.12802C41.2344 14.7749 46.0417 21.6541 48.2219 30.2124C48.5604 31.5124 48.6688 32.9749 50.3208 34.0041C50.4833 32.7447 50.6188 31.702 50.7677 30.6728C51.1469 28.127 51.3906 25.5541 51.9594 23.0624C52.3115 21.5593 53.3542 21.2478 54.451 22.3311C55.8865 23.753 57.2948 25.3239 58.2292 27.0978C61.7094 33.7332 62.901 40.9374 62.874 48.3582C62.8469 54.1947 61.7635 59.8551 59.0823 65.0686C58.175 66.8426 56.6448 68.3051 55.3448 69.8624C54.7625 70.5666 53.4354 70.3363 54.0448 68.7655C54.099 68.6301 54.1667 68.4676 54.2615 68.3322C59.299 61.5749 59.8 53.6666 59.8677 45.7041C59.9219 39.353 59.001 33.1238 56.0354 27.3822C55.4125 26.2041 54.6135 25.1478 53.6792 23.7124ZM52.9479 51.4864C52.149 54.1405 51.526 56.3343 50.8083 58.5145C50.2396 60.2343 49.3729 61.7916 47.6667 62.6447C45.6896 63.6468 43.7667 62.5364 43.6583 60.3155C43.6177 59.4082 43.6583 58.4738 43.8344 57.5936C45.2156 50.5249 44.5656 43.6728 41.8031 37.0239C41.3292 35.8864 40.6385 34.8436 39.9479 33.5978C39.7042 34.0041 39.5281 35.4801 39.501 36.1166C39.325 40.9374 38.7833 45.7041 36.251 49.9561C34.7344 52.4884 33.0281 54.9124 31.376 57.377C29.5479 60.1259 27.9229 62.9697 27.3271 66.2738C26.9208 68.5353 27.0969 68.6436 29.2635 69.1988C33.8542 70.3634 38.35 69.6186 42.8323 68.7249C47.9375 67.7093 51.1198 64.3509 53.0156 59.7197C54.0583 57.1874 53.7604 54.5603 52.9479 51.4864Z" fill="#CD4631"/>
</svg>
