<svg width="78" height="79" viewBox="0 0 78 79" fill="none" xmlns="http://www.w3.org/2000/svg">
<path d="M29.1146 30.0911C27.7604 29.1161 26.7719 28.3984 25.7833 27.6942C21.8021 24.8369 17.7937 21.9932 13.8396 19.0953C12.8917 18.4046 11.9979 17.5515 11.3344 16.6036C10.9552 16.0349 10.8333 15.0192 11.0906 14.4234C11.2396 14.0713 12.4583 13.8817 13.0406 14.0849C14.4625 14.5588 15.8437 15.2088 17.1437 15.9536C21.1927 18.2963 25.201 20.7203 29.3854 23.2119C29.7646 20.7203 30.0896 18.2421 30.55 15.7911C30.9021 13.8953 31.3896 11.9994 31.9177 10.1442C32.2562 8.93902 32.974 7.89632 34.4229 8.09944C35.926 8.30257 36.4135 9.49423 36.3865 10.8349C36.3323 14.8297 36.1969 18.8109 36.1156 22.8057C36.0885 23.7536 36.1156 24.7015 36.1156 25.6494C36.2646 25.7849 37.5375 24.6474 38.1333 24.0651C43.225 19.0817 48.3167 14.1255 53.4625 9.19632C54.1802 8.50569 55.0875 7.9234 56.0083 7.54423C56.4958 7.34111 57.4167 7.49007 57.7417 7.84215C58.0667 8.19423 58.1344 9.11507 57.9042 9.58902C57.4708 10.4963 56.8208 11.3224 56.1302 12.0671C51.5937 17.0505 47.0302 22.0067 42.4802 26.9765C41.9792 27.5182 41.4781 28.0869 40.7333 28.913C44.1458 28.6692 47.2198 28.3984 50.2937 28.2359C56.4823 27.9244 62.6844 27.6672 68.8729 27.3963C69.2521 27.3828 69.6583 27.3828 69.9833 27.4505C72.1094 27.8974 71.9198 30.0234 70.3219 30.2942C68.3719 30.6328 66.4083 31.0526 64.4313 31.2557C57.349 31.9599 50.2667 32.5828 43.1844 33.2463C43.0354 33.2599 42.9 33.314 42.4531 33.4359C44.4031 34.9661 46.2042 36.3744 48.0052 37.7692C51.4042 40.4234 54.8437 43.0369 58.1885 45.7453C59.0823 46.4765 59.8677 47.438 60.4365 48.4401C61.0458 49.4963 60.4094 50.4036 59.2448 50.1192C57.8229 49.7536 56.3604 49.1713 55.1552 48.3453C49.2781 44.3369 43.4823 40.2067 37.6594 36.1172C37.0094 35.6567 36.3594 35.1963 35.4115 34.5057C35.2083 37.5796 35.0458 40.3422 34.8292 43.1047C34.1792 51.3244 33.5292 59.5442 32.8521 67.764C32.7708 68.6713 32.5948 69.5922 32.324 70.4588C31.9583 71.6505 31.1458 72.4359 29.8323 72.3411C28.6 72.2463 27.8823 71.4203 27.6656 70.2557C27.4625 69.1453 27.3542 68.0078 27.3677 66.8838C27.449 59.5442 27.5708 52.2182 27.6792 44.8786C27.6927 44.3369 27.6792 43.8088 27.6792 42.8744C27.0562 43.4703 26.6229 43.863 26.2031 44.2828C21.5177 48.9682 16.8323 53.6672 12.1333 58.3526C11.6052 58.8807 11.0094 59.4088 10.3323 59.7067C9.87187 59.9099 9.05937 59.8963 8.70729 59.6119C8.3552 59.3276 8.27395 58.5286 8.27395 58.0547C8.2875 56.5651 9.08645 55.9015 9.79062 55.0484C13.9344 50.0244 18.1458 45.0411 22.3844 40.0849C23.9146 38.2974 25.5802 36.6317 27.5437 34.5463C23.874 34.9661 20.6917 35.3724 17.5094 35.6703C14.449 35.9547 11.3885 36.1307 8.31458 36.3474C7.98958 36.3744 7.65104 36.3203 7.35312 36.2796C5.79583 36.0901 6.67604 34.438 7.12291 34.3297C10.1969 33.5713 13.2979 32.8401 16.4125 32.2713C20.1094 31.6349 28.275 30.3755 29.1146 30.0911Z" fill="black"/>
</svg>
