<svg width="13" height="13" viewBox="0 0 13 13" fill="none" xmlns="http://www.w3.org/2000/svg">
<mask id="path-1-outside-1_314_379" maskUnits="userSpaceOnUse" x="-0.225586" y="0.0209961" width="13" height="13" fill="black">
<rect fill="white" x="-0.225586" y="0.0209961" width="13" height="13"/>
<path d="M6.25899 1.021C5.17422 1.021 4.11384 1.34266 3.2119 1.94529C2.30999 2.54796 1.60703 3.40454 1.19189 4.40669C0.776785 5.40888 0.668175 6.51164 0.879811 7.57552C1.09142 8.63944 1.61376 9.61668 2.3808 10.3837C3.14783 11.1507 4.1251 11.6731 5.189 11.8847C6.25289 12.0963 7.35565 11.9877 8.35781 11.5726C9.35999 11.1575 10.2166 10.4545 10.8192 9.5526C11.4219 8.65067 11.7435 7.5903 11.7435 6.50556C11.7435 5.05094 11.1657 3.65594 10.1371 2.6274C9.10857 1.59882 7.71358 1.021 6.25899 1.021ZM8.77582 8.93049C8.75249 8.96924 8.72167 9.00297 8.6852 9.02972C8.6487 9.05646 8.60725 9.07568 8.56325 9.08627C8.51929 9.09686 8.47363 9.0986 8.42896 9.09139C8.38429 9.08418 8.3415 9.06818 8.30309 9.0443C7.01623 8.2564 5.39668 8.08132 3.48825 8.51466C3.44482 8.52502 3.3998 8.52666 3.35574 8.51945C3.31171 8.51228 3.26949 8.49641 3.23165 8.47282C3.19378 8.44919 3.16098 8.4183 3.13513 8.38189C3.10929 8.34549 3.09097 8.30433 3.08118 8.26078C3.07075 8.21711 3.06909 8.17179 3.0762 8.12744C3.08335 8.08309 3.09914 8.0406 3.12272 8.00237C3.1463 7.96416 3.17722 7.93098 3.21362 7.90472C3.25006 7.87845 3.29132 7.85962 3.33503 7.84932C5.42294 7.37221 7.21756 7.57794 8.66204 8.46213C8.73909 8.50925 8.79435 8.58502 8.81567 8.67278C8.83701 8.76059 8.82269 8.85325 8.77582 8.93049ZM9.44554 7.43787C9.38437 7.53198 9.28939 7.59896 9.18023 7.62503C9.07108 7.6511 8.95609 7.63423 8.859 7.57794C7.19471 6.64956 5.22997 6.41972 3.39632 6.93887C3.33927 6.9707 3.27581 6.98933 3.21062 6.99342C3.14541 6.99751 3.08013 6.98695 3.01954 6.96252C2.95895 6.9381 2.90461 6.90044 2.86048 6.85226C2.81636 6.80411 2.78355 6.74666 2.76451 6.68419C2.74546 6.62168 2.74064 6.55573 2.7504 6.49114C2.76017 6.42654 2.78426 6.36497 2.82092 6.3109C2.85758 6.25683 2.90589 6.21167 2.96226 6.17868C3.01868 6.14573 3.08172 6.12577 3.14681 6.12036C4.17028 5.82574 5.24231 5.73862 6.29992 5.86417C7.35753 5.98969 8.37941 6.32532 9.30547 6.85136C9.39956 6.91251 9.46653 7.00749 9.4926 7.11663C9.51867 7.2258 9.50182 7.3408 9.44554 7.43787ZM9.50243 5.884C7.75158 4.83347 4.82328 4.73717 3.1337 5.2493C3.00368 5.28879 2.86329 5.27499 2.74345 5.21094C2.62361 5.14692 2.53411 5.03791 2.49464 4.90788C2.45517 4.77789 2.46896 4.63749 2.53299 4.51764C2.597 4.39781 2.70602 4.3083 2.83604 4.26884C4.77514 3.6823 7.99232 3.79611 10.0277 4.9998C10.1323 5.0747 10.2049 5.18622 10.2311 5.31222C10.2572 5.4382 10.235 5.56942 10.1688 5.67978C10.1026 5.79011 9.99727 5.87148 9.87382 5.90768C9.75034 5.94392 9.61774 5.93234 9.50243 5.87524V5.884Z"/>
</mask>
<path d="M6.25899 1.021C5.17422 1.021 4.11384 1.34266 3.2119 1.94529C2.30999 2.54796 1.60703 3.40454 1.19189 4.40669C0.776785 5.40888 0.668175 6.51164 0.879811 7.57552C1.09142 8.63944 1.61376 9.61668 2.3808 10.3837C3.14783 11.1507 4.1251 11.6731 5.189 11.8847C6.25289 12.0963 7.35565 11.9877 8.35781 11.5726C9.35999 11.1575 10.2166 10.4545 10.8192 9.5526C11.4219 8.65067 11.7435 7.5903 11.7435 6.50556C11.7435 5.05094 11.1657 3.65594 10.1371 2.6274C9.10857 1.59882 7.71358 1.021 6.25899 1.021ZM8.77582 8.93049C8.75249 8.96924 8.72167 9.00297 8.6852 9.02972C8.6487 9.05646 8.60725 9.07568 8.56325 9.08627C8.51929 9.09686 8.47363 9.0986 8.42896 9.09139C8.38429 9.08418 8.3415 9.06818 8.30309 9.0443C7.01623 8.2564 5.39668 8.08132 3.48825 8.51466C3.44482 8.52502 3.3998 8.52666 3.35574 8.51945C3.31171 8.51228 3.26949 8.49641 3.23165 8.47282C3.19378 8.44919 3.16098 8.4183 3.13513 8.38189C3.10929 8.34549 3.09097 8.30433 3.08118 8.26078C3.07075 8.21711 3.06909 8.17179 3.0762 8.12744C3.08335 8.08309 3.09914 8.0406 3.12272 8.00237C3.1463 7.96416 3.17722 7.93098 3.21362 7.90472C3.25006 7.87845 3.29132 7.85962 3.33503 7.84932C5.42294 7.37221 7.21756 7.57794 8.66204 8.46213C8.73909 8.50925 8.79435 8.58502 8.81567 8.67278C8.83701 8.76059 8.82269 8.85325 8.77582 8.93049ZM9.44554 7.43787C9.38437 7.53198 9.28939 7.59896 9.18023 7.62503C9.07108 7.6511 8.95609 7.63423 8.859 7.57794C7.19471 6.64956 5.22997 6.41972 3.39632 6.93887C3.33927 6.9707 3.27581 6.98933 3.21062 6.99342C3.14541 6.99751 3.08013 6.98695 3.01954 6.96252C2.95895 6.9381 2.90461 6.90044 2.86048 6.85226C2.81636 6.80411 2.78355 6.74666 2.76451 6.68419C2.74546 6.62168 2.74064 6.55573 2.7504 6.49114C2.76017 6.42654 2.78426 6.36497 2.82092 6.3109C2.85758 6.25683 2.90589 6.21167 2.96226 6.17868C3.01868 6.14573 3.08172 6.12577 3.14681 6.12036C4.17028 5.82574 5.24231 5.73862 6.29992 5.86417C7.35753 5.98969 8.37941 6.32532 9.30547 6.85136C9.39956 6.91251 9.46653 7.00749 9.4926 7.11663C9.51867 7.2258 9.50182 7.3408 9.44554 7.43787ZM9.50243 5.884C7.75158 4.83347 4.82328 4.73717 3.1337 5.2493C3.00368 5.28879 2.86329 5.27499 2.74345 5.21094C2.62361 5.14692 2.53411 5.03791 2.49464 4.90788C2.45517 4.77789 2.46896 4.63749 2.53299 4.51764C2.597 4.39781 2.70602 4.3083 2.83604 4.26884C4.77514 3.6823 7.99232 3.79611 10.0277 4.9998C10.1323 5.0747 10.2049 5.18622 10.2311 5.31222C10.2572 5.4382 10.235 5.56942 10.1688 5.67978C10.1026 5.79011 9.99727 5.87148 9.87382 5.90768C9.75034 5.94392 9.61774 5.93234 9.50243 5.87524V5.884Z" fill="#1ED760"/>
<path d="M3.2119 1.94529L2.83103 1.37526L2.831 1.37527L3.2119 1.94529ZM1.19189 4.40669L0.558515 4.14432L0.558504 4.14434L1.19189 4.40669ZM0.879811 7.57552L1.55221 7.44179L1.55221 7.44177L0.879811 7.57552ZM2.3808 10.3837L1.89603 10.8685L1.89604 10.8685L2.3808 10.3837ZM8.35781 11.5726L8.09545 10.9392L8.09544 10.9392L8.35781 11.5726ZM10.1371 2.6274L9.65238 3.11217V3.11217L10.1371 2.6274ZM8.77582 8.93049L8.1897 8.57485L8.18844 8.57695L8.77582 8.93049ZM8.6852 9.02972L9.09041 9.58272L9.09064 9.58255L8.6852 9.02972ZM8.56325 9.08627L8.40284 8.41973L8.40273 8.41976L8.56325 9.08627ZM8.30309 9.0443L8.66505 8.46205L8.66107 8.45962L8.30309 9.0443ZM3.48825 8.51466L3.33643 7.84607L3.3291 7.84782L3.48825 8.51466ZM3.35574 8.51945L3.46644 7.84288L3.46603 7.84281L3.35574 8.51945ZM3.23165 8.47282L2.86882 9.0545L2.86895 9.05459L3.23165 8.47282ZM3.08118 8.26078L3.75009 8.11032L3.74799 8.10149L3.08118 8.26078ZM3.0762 8.12744L2.39936 8.01837L2.39929 8.01884L3.0762 8.12744ZM3.12272 8.00237L2.53932 7.6423L2.53919 7.64252L3.12272 8.00237ZM3.21362 7.90472L2.81276 7.34856L2.81253 7.34872L3.21362 7.90472ZM3.33503 7.84932L3.1823 7.18097L3.1778 7.18203L3.33503 7.84932ZM8.66204 8.46213L8.30412 9.04685L8.30438 9.04701L8.66204 8.46213ZM8.81567 8.67278L8.14946 8.83457L8.1495 8.83474L8.81567 8.67278ZM9.44554 7.43787L10.0204 7.81147L10.0299 7.79684L10.0386 7.78175L9.44554 7.43787ZM8.859 7.57794L9.20291 6.98476L9.19298 6.97922L8.859 7.57794ZM3.39632 6.93887L3.20956 6.27923L3.13235 6.30109L3.06228 6.34019L3.39632 6.93887ZM3.21062 6.99342L3.25351 7.67765L3.25353 7.67765L3.21062 6.99342ZM2.86048 6.85226L3.36606 6.38923L3.3659 6.38906L2.86048 6.85226ZM2.76451 6.68419L2.10871 6.88404L2.10874 6.88414L2.76451 6.68419ZM2.96226 6.17868L2.61642 5.58674L2.61603 5.58697L2.96226 6.17868ZM3.14681 6.12036L3.20357 6.80358L3.27122 6.79796L3.33646 6.77918L3.14681 6.12036ZM6.29992 5.86417L6.2191 6.54496L6.21912 6.54496L6.29992 5.86417ZM9.30547 6.85136L9.67906 6.27652L9.66189 6.26536L9.64408 6.25525L9.30547 6.85136ZM9.4926 7.11663L10.1594 6.95741L10.1594 6.95736L9.4926 7.11663ZM9.50243 5.884L9.1497 6.47186L10.188 7.09485V5.884H9.50243ZM3.1337 5.2493L2.93483 4.59321L2.93446 4.59332L3.1337 5.2493ZM2.74345 5.21094L3.06659 4.6063L3.06647 4.60624L2.74345 5.21094ZM2.49464 4.90788L3.15065 4.70876L3.15064 4.70871L2.49464 4.90788ZM2.53299 4.51764L3.13767 4.8407L3.1377 4.84064L2.53299 4.51764ZM2.83604 4.26884L2.63755 3.61264L2.63695 3.61282L2.83604 4.26884ZM10.0277 4.9998L10.4268 4.44235L10.4024 4.42493L10.3767 4.4097L10.0277 4.9998ZM10.2311 5.31222L10.9024 5.17298L10.9024 5.17285L10.2311 5.31222ZM10.1688 5.67978L10.7566 6.03253L10.7567 6.03246L10.1688 5.67978ZM9.87382 5.90768L9.68086 5.24983L9.68075 5.24986L9.87382 5.90768ZM9.50243 5.87524L9.80664 5.26086L8.81686 4.77077V5.87524H9.50243ZM6.25899 0.335427C5.03864 0.335427 3.8457 0.697293 2.83103 1.37526L3.59277 2.51533C4.38197 1.98802 5.30981 1.70657 6.25899 1.70657V0.335427ZM2.831 1.37527C1.81637 2.05327 1.02554 3.01691 0.558515 4.14432L1.82527 4.66907C2.18852 3.79217 2.80362 3.04265 3.5928 2.51531L2.831 1.37527ZM0.558504 4.14434C0.0915132 5.2718 -0.0306758 6.5124 0.207418 7.70928L1.55221 7.44177C1.36703 6.51088 1.46206 5.54596 1.82528 4.66904L0.558504 4.14434ZM0.207413 7.70926C0.44547 8.90617 1.03311 10.0056 1.89603 10.8685L2.86557 9.89895C2.19441 9.22779 1.73736 8.37271 1.55221 7.44179L0.207413 7.70926ZM1.89604 10.8685C2.75894 11.7314 3.85837 12.319 5.05525 12.5571L5.32274 11.2123C4.39184 11.0272 3.53672 10.5701 2.86556 9.89894L1.89604 10.8685ZM5.05525 12.5571C6.25212 12.7952 7.49273 12.673 8.62017 12.206L8.09544 10.9392C7.21857 11.3025 6.25366 11.3975 5.32274 11.2123L5.05525 12.5571ZM8.62016 12.206C9.74762 11.739 10.7113 10.9482 11.3892 9.93349L10.2492 9.17172C9.72187 9.9609 8.97237 10.576 8.09545 10.9392L8.62016 12.206ZM11.3892 9.93349C12.0672 8.91881 12.4291 7.72589 12.4291 6.50556H11.058C11.058 7.45471 10.7765 8.38254 10.2492 9.17172L11.3892 9.93349ZM12.4291 6.50556C12.4291 4.86912 11.779 3.29974 10.6219 2.14262L9.65238 3.11217C10.5523 4.01214 11.058 5.23277 11.058 6.50556H12.4291ZM10.6219 2.14262C9.46477 0.98548 7.89541 0.335427 6.25899 0.335427V1.70657C7.53175 1.70657 8.75237 2.21216 9.65238 3.11217L10.6219 2.14262ZM8.18844 8.57695C8.21207 8.53768 8.24316 8.50373 8.27976 8.47689L9.09064 9.58255C9.20018 9.50222 9.29291 9.4008 9.3632 9.28403L8.18844 8.57695ZM8.27999 8.47672C8.31682 8.44973 8.3586 8.43038 8.40284 8.41973L8.72367 9.75281C8.85591 9.72098 8.98058 9.6632 9.09041 9.58272L8.27999 8.47672ZM8.40273 8.41976C8.44719 8.40905 8.49323 8.40732 8.5382 8.41458L8.31973 9.7682C8.45403 9.78987 8.59139 9.78467 8.72378 9.75278L8.40273 8.41976ZM8.5382 8.41458C8.58302 8.42181 8.62616 8.43789 8.66504 8.46207L7.94114 9.62653C8.05685 9.69847 8.18556 9.74654 8.31973 9.7682L8.5382 8.41458ZM8.66107 8.45962C7.17934 7.55241 5.36389 7.38574 3.33644 7.84611L3.64005 9.18321C5.42947 8.77689 6.85312 8.9604 7.94511 9.62898L8.66107 8.45962ZM3.3291 7.84782C3.37391 7.83712 3.42061 7.83538 3.46644 7.84288L3.24504 9.19603C3.37899 9.21794 3.51573 9.21292 3.64739 9.1815L3.3291 7.84782ZM3.46603 7.84281C3.51157 7.85024 3.55515 7.86661 3.59435 7.89105L2.86895 9.05459C2.98384 9.12621 3.11184 9.17432 3.24544 9.19609L3.46603 7.84281ZM3.59449 7.89113C3.63358 7.91552 3.66746 7.94743 3.69414 7.98501L2.57613 8.77878C2.6545 8.88916 2.75398 8.98287 2.86882 9.0545L3.59449 7.89113ZM3.69414 7.98501C3.72107 8.02294 3.73997 8.0656 3.75004 8.11033L2.41232 8.41123C2.44198 8.54306 2.49751 8.66804 2.57613 8.77878L3.69414 7.98501ZM3.74799 8.10149C3.75864 8.14609 3.76021 8.19182 3.75311 8.23603L2.39929 8.01884C2.37796 8.15176 2.38285 8.28812 2.41437 8.42007L3.74799 8.10149ZM3.75304 8.23651C3.74587 8.28096 3.73001 8.32371 3.70626 8.36221L2.53919 7.64252C2.46828 7.7575 2.42082 7.88521 2.39936 8.01837L3.75304 8.23651ZM3.70612 8.36243C3.68224 8.40113 3.65112 8.43445 3.61472 8.46071L2.81253 7.34872C2.70332 7.42751 2.61037 7.52719 2.53932 7.6423L3.70612 8.36243ZM3.61449 8.46087C3.57788 8.48726 3.53636 8.50623 3.49225 8.51662L3.1778 7.18203C3.04627 7.21302 2.92224 7.26965 2.81276 7.34856L3.61449 8.46087ZM3.48775 8.51767C5.44982 8.06931 7.05032 8.27938 8.30412 9.04685L9.01996 7.87741C7.3848 6.8765 5.39605 6.67511 3.1823 7.18098L3.48775 8.51767ZM8.30438 9.04701C8.22669 8.99951 8.17097 8.92315 8.14946 8.83457L9.48188 8.511C9.41774 8.24688 9.25149 8.019 9.0197 7.87725L8.30438 9.04701ZM8.1495 8.83474C8.12799 8.74625 8.14242 8.65277 8.18971 8.57485L9.36193 9.28613C9.50295 9.05372 9.54604 8.77493 9.48183 8.51083L8.1495 8.83474ZM8.87071 7.06427C8.90542 7.01086 8.95926 6.97295 9.02097 6.95821L9.3395 8.29184C9.61951 8.22496 9.86332 8.0531 10.0204 7.81147L8.87071 7.06427ZM9.02097 6.95821C9.08285 6.94343 9.14796 6.95301 9.20286 6.98484L8.51513 8.17103C8.76422 8.31545 9.05931 8.35876 9.3395 8.29184L9.02097 6.95821ZM9.19298 6.97922C7.37003 5.96233 5.21799 5.71059 3.20956 6.27923L3.58308 7.59851C5.24194 7.12885 7.01939 7.33678 8.52502 8.17666L9.19298 6.97922ZM3.06228 6.34019C3.09473 6.32208 3.13076 6.31151 3.16772 6.3092L3.25353 7.67765C3.42086 7.66715 3.58382 7.61932 3.73036 7.53755L3.06228 6.34019ZM3.16774 6.3092C3.20462 6.30688 3.24158 6.31286 3.27589 6.32669L2.76318 7.59836C2.91867 7.66105 3.08619 7.68814 3.25351 7.67765L3.16774 6.3092ZM3.27589 6.32669C3.31013 6.34049 3.34098 6.36184 3.36606 6.38923L2.35491 7.31529C2.46824 7.43904 2.60776 7.5357 2.76318 7.59836L3.27589 6.32669ZM3.3659 6.38906C3.39094 6.41638 3.40949 6.44889 3.42027 6.48424L2.10874 6.88414C2.15762 7.04442 2.24177 7.19184 2.35506 7.31546L3.3659 6.38906ZM3.4203 6.48433C3.43107 6.51967 3.4338 6.55701 3.42827 6.5936L2.07253 6.38868C2.04748 6.55446 2.05985 6.7237 2.10871 6.88404L3.4203 6.48433ZM3.42827 6.5936C3.42274 6.63016 3.4091 6.66504 3.38836 6.69563L2.25348 5.92617C2.15941 6.06491 2.09759 6.22292 2.07253 6.38868L3.42827 6.5936ZM3.38836 6.69563C3.3675 6.72639 3.34015 6.75188 3.3085 6.7704L2.61603 5.58697C2.47162 5.67147 2.34765 5.78727 2.25348 5.92617L3.38836 6.69563ZM3.3081 6.77063C3.27648 6.78911 3.2408 6.80049 3.20357 6.80358L3.09006 5.43715C2.92265 5.45106 2.76087 5.50235 2.61642 5.58674L3.3081 6.77063ZM3.33646 6.77918C4.27215 6.50982 5.25223 6.43018 6.2191 6.54496L6.38074 5.18338C5.2324 5.04706 4.06841 5.14166 2.95716 5.46155L3.33646 6.77918ZM6.21912 6.54496C7.18602 6.65972 8.12024 6.96656 8.96685 7.44747L9.64408 6.25525C8.63858 5.68408 7.52905 5.31967 6.38072 5.18338L6.21912 6.54496ZM8.93187 7.42619C8.87843 7.39146 8.84052 7.3376 8.82579 7.27589L10.1594 6.95736C10.0925 6.67737 9.92068 6.43356 9.67906 6.27652L8.93187 7.42619ZM8.82578 7.27585C8.81104 7.21413 8.82054 7.14902 8.85245 7.09399L10.0386 7.78175C10.1831 7.53257 10.2263 7.23747 10.1594 6.95741L8.82578 7.27585ZM9.85515 5.29613C8.85671 4.69705 7.57166 4.39334 6.34883 4.29719C5.12291 4.2008 3.87967 4.30682 2.93483 4.59321L3.33257 5.90539C4.07732 5.67965 5.14301 5.57775 6.24135 5.66411C7.34278 5.75071 8.3973 6.02042 9.1497 6.47186L9.85515 5.29613ZM2.93446 4.59332C2.97851 4.57994 3.02604 4.58463 3.06659 4.6063L2.4203 5.81557C2.70054 5.96534 3.02885 5.99764 3.33294 5.90528L2.93446 4.59332ZM3.06647 4.60624C3.10704 4.62791 3.13731 4.66481 3.15065 4.70876L1.83863 5.10701C1.9309 5.41101 2.14017 5.66593 2.42043 5.81564L3.06647 4.60624ZM3.15064 4.70871C3.16399 4.75269 3.15933 4.80015 3.13767 4.8407L1.92831 4.19457C1.77858 4.47483 1.74635 4.80308 1.83864 5.10705L3.15064 4.70871ZM3.1377 4.84064C3.11601 4.88125 3.07911 4.91152 3.03513 4.92487L2.63695 3.61282C2.33293 3.70508 2.07799 3.91437 1.92828 4.19463L3.1377 4.84064ZM3.03453 4.92505C3.90569 4.66154 5.10615 4.54614 6.34031 4.6463C7.57619 4.74661 8.77866 5.05762 9.67873 5.5899L10.3767 4.4097C9.24136 3.73829 7.81755 3.39055 6.45122 3.27966C5.08316 3.16863 3.70549 3.2896 2.63755 3.61264L3.03453 4.92505ZM9.62864 5.55726C9.59327 5.53193 9.56871 5.49421 9.55986 5.4516L10.9024 5.17285C10.8412 4.87823 10.6714 4.61746 10.4268 4.44235L9.62864 5.55726ZM9.55983 5.45147C9.55098 5.4088 9.55852 5.36441 9.5809 5.3271L10.7567 6.03246C10.9115 5.77443 10.9635 5.46759 10.9024 5.17298L9.55983 5.45147ZM9.58095 5.32703C9.60338 5.28965 9.63904 5.2621 9.68086 5.24983L10.0668 6.56554C10.3555 6.48085 10.6018 6.29058 10.7566 6.03253L9.58095 5.32703ZM9.68075 5.24986C9.7226 5.23758 9.76754 5.2415 9.80664 5.26086L9.19821 6.48962C9.46794 6.62318 9.77808 6.65027 10.0669 6.56551L9.68075 5.24986ZM8.81686 5.87524V5.884H10.188V5.87524H8.81686Z" fill="black" mask="url(#path-1-outside-1_314_379)"/>
</svg>
