<svg width="40" height="40" viewBox="0 0 40 40" fill="none" xmlns="http://www.w3.org/2000/svg">
<path fill-rule="evenodd" clip-rule="evenodd" d="M20 39.7496C9.09373 39.7496 0.25 30.9081 0.25 19.9996C0.25 9.09328 9.09365 0.249634 20 0.249634C30.9064 0.249634 39.75 9.09328 39.75 19.9996C39.75 30.9081 30.9063 39.7496 20 39.7496ZM2.75 19.9996C2.75 29.5272 10.4743 37.2496 20 37.2496C29.5257 37.2496 37.25 29.5272 37.25 19.9996C37.25 10.474 29.5256 2.74963 20 2.74963C10.4744 2.74963 2.75 10.474 2.75 19.9996Z" fill="#CD4631"/>
<path fill-rule="evenodd" clip-rule="evenodd" d="M16.2295 27.824C15.7424 27.3348 15.7441 26.5433 16.2334 26.0562L22.3157 20L16.2334 13.9438C15.7441 13.4567 15.7424 12.6652 16.2295 12.176C16.7166 11.6868 17.5081 11.6851 17.9973 12.1722L24.9693 19.1142C25.2049 19.3488 25.3373 19.6676 25.3373 20C25.3373 20.3325 25.2049 20.6512 24.9693 20.8858L17.9973 27.8278C17.5081 28.3149 16.7166 28.3132 16.2295 27.824Z" fill="#CD4631"/>
</svg>
