<svg width="18" height="20" viewBox="0 0 18 20" fill="none" xmlns="http://www.w3.org/2000/svg">
<g clip-path="url(#clip0_2040_1574)">
<path d="M3.33812 12.8444C3.45533 11.8739 3.85333 11.3306 4.60335 10.7736C5.67649 10.0193 7.01701 10.446 7.01701 10.446V7.91462C7.3429 7.90629 7.66892 7.92561 7.99126 7.97234V11.23C7.99126 11.23 6.65116 10.8033 5.57801 11.558C4.8284 12.1146 4.42958 12.6583 4.31278 13.6287C4.30912 14.1557 4.40801 14.8445 4.8634 15.4401C4.75081 15.3824 4.63604 15.3166 4.51911 15.2427C3.51596 14.5691 3.33324 13.5585 3.33812 12.8444ZM13.5263 3.23411C12.7881 2.42517 12.5089 1.60842 12.408 1.03467H13.3366C13.3366 1.03467 13.1515 2.53906 14.5009 4.01849L14.5197 4.03838C14.156 3.8096 13.8224 3.53956 13.5263 3.23411ZM17.9999 5.52756V8.71967C17.9999 8.71967 16.8149 8.67325 15.9379 8.45015C14.7134 8.13811 13.9263 7.65953 13.9263 7.65953C13.9263 7.65953 13.3826 7.31824 13.3387 7.29445V13.8862C13.3387 14.2532 13.2382 15.1698 12.9317 15.9343C12.5317 16.9343 11.9143 17.5908 11.8008 17.725C11.8008 17.725 11.0499 18.6123 9.7253 19.2098C8.53129 19.7489 7.48297 19.7352 7.16962 19.7489C7.16962 19.7489 5.35744 19.8207 3.72677 18.7609C3.37415 18.5273 3.04499 18.2628 2.74356 17.9707L2.7517 17.9765C4.38278 19.0363 6.19455 18.9645 6.19455 18.9645C6.50831 18.9509 7.55663 18.9645 8.75024 18.4255C10.0737 17.8279 10.8257 16.9406 10.8257 16.9406C10.938 16.8064 11.5582 16.15 11.9566 15.1495C12.2623 14.3854 12.3636 13.4684 12.3636 13.1014V6.51047C12.4076 6.53465 12.9508 6.87594 12.9508 6.87594C12.9508 6.87594 13.7383 7.35491 14.9628 7.66655C15.8402 7.88966 17.0249 7.93607 17.0249 7.93607V5.43473C17.4302 5.52561 17.7757 5.55018 17.9999 5.52756Z" fill="black"/>
<path d="M17.0253 5.43473V7.93529C17.0253 7.93529 15.8407 7.88887 14.9633 7.66577C13.7387 7.35374 12.9513 6.87516 12.9513 6.87516C12.9513 6.87516 12.408 6.53387 12.364 6.50969V13.1022C12.364 13.4692 12.2635 14.3862 11.9571 15.1503C11.557 16.1507 10.9397 16.8072 10.8261 16.9414C10.8261 16.9414 10.0749 17.8287 8.75067 18.4262C7.55706 18.9653 6.50874 18.9516 6.19498 18.9653C6.19498 18.9653 4.38321 19.0371 2.75213 17.9773L2.74399 17.9715C2.57178 17.8047 2.40968 17.6286 2.25849 17.4441C1.73799 16.8095 1.41894 16.0591 1.33877 15.845C1.33863 15.844 1.33863 15.8431 1.33877 15.8422C1.20976 15.4701 0.938731 14.5765 0.975764 13.711C1.04128 12.184 1.57847 11.2467 1.72049 11.0119C2.09664 10.3716 2.58587 9.79874 3.16641 9.31877C3.6787 8.90459 4.25936 8.57505 4.88458 8.34366C5.56046 8.07198 6.28422 7.92637 7.01703 7.91462V10.446C7.01703 10.446 5.67652 10.0208 4.60378 10.7736C3.85376 11.3306 3.45576 11.8739 3.33855 12.8444C3.33367 13.5585 3.51639 14.5691 4.51873 15.2431C4.63566 15.3172 4.75042 15.383 4.86301 15.4405C5.03812 15.6681 5.25125 15.8664 5.49379 16.0275C6.47293 16.6473 7.29336 16.6906 8.34249 16.288C9.04205 16.0189 9.56865 15.4124 9.81282 14.7404C9.96625 14.3207 9.96421 13.8982 9.96421 13.4614V1.03467H12.4059C12.5069 1.60842 12.786 2.42517 13.5243 3.23411C13.8204 3.53956 14.1539 3.8096 14.5176 4.03838C14.6251 4.14954 15.1745 4.69911 15.8797 5.0365C16.2444 5.21089 16.6288 5.34452 17.0253 5.43473Z" fill="black"/>
<path d="M0.366913 15.0679V15.0698L0.4275 15.234C0.420541 15.2149 0.398025 15.1568 0.366913 15.0679Z" fill="black"/>
<path d="M4.88461 8.34398C4.25939 8.57537 3.67873 8.90491 3.16644 9.31908C2.58572 9.80014 2.09661 10.3742 1.72093 11.0158C1.57891 11.2498 1.04172 12.1878 0.976205 13.7149C0.939172 14.5804 1.2102 15.4739 1.33921 15.846C1.33907 15.847 1.33907 15.8479 1.33921 15.8488C1.4206 16.061 1.73843 16.8114 2.25893 17.4479C2.41012 17.6325 2.57222 17.8085 2.74443 17.9753C2.19268 17.6095 1.7006 17.1674 1.28427 16.6632C0.76825 16.034 0.45001 15.2914 0.366991 15.0722C0.366894 15.0706 0.366894 15.0691 0.366991 15.0675V15.0648C0.237579 14.6931 -0.0342673 13.7991 0.00357963 12.9324C0.0690996 11.4054 0.606281 10.4681 0.748309 10.2333C1.12388 9.59174 1.613 9.01763 2.19382 8.53666C2.706 8.12234 3.28669 7.79279 3.91199 7.56155C4.30202 7.40646 4.70833 7.29203 5.1239 7.22027C5.75019 7.11549 6.38984 7.1064 7.0191 7.19336V7.91493C6.2856 7.92643 5.56113 8.07206 4.88461 8.34398Z" fill="black"/>
<path d="M12.408 1.03476H9.96623V13.4619C9.96623 13.8987 9.96623 14.32 9.81484 14.7408C9.56822 15.4125 9.04366 16.019 8.34451 16.2881C7.29497 16.6922 6.47454 16.6474 5.49581 16.0276C5.25285 15.8673 5.03917 15.6696 4.8634 15.4425C5.69726 15.8688 6.44361 15.8614 7.36822 15.5057C8.06696 15.2366 8.59234 14.6301 8.83814 13.958C8.99197 13.5383 8.98994 13.1159 8.98994 12.6795V0.25H12.3616C12.3616 0.25 12.3237 0.558913 12.408 1.03476ZM17.0253 4.74328V5.43483C16.6295 5.34447 16.2458 5.21085 15.8817 5.0366C15.1765 4.69921 14.6271 4.14964 14.5197 4.03848C14.6443 4.11693 14.7737 4.1883 14.9071 4.25222C15.7645 4.66255 16.609 4.78502 17.0253 4.74328Z" fill="black"/>
</g>
<defs>
<clipPath id="clip0_2040_1574">
<rect width="18" height="20" fill="white"/>
</clipPath>
</defs>
</svg>
