<svg width="631" height="593" viewBox="0 0 631 593" fill="none" xmlns="http://www.w3.org/2000/svg">
<path d="M199.401 84.5123C199.401 131.018 217.386 209.437 149.471 294.21C83.1352 377.012 174.395 114.816 266.049 98.5871C373.187 79.617 188.547 518.862 179.026 429.47C173.7 379.459 328.672 116.961 372.264 160.552C427.718 216.006 282.307 532.752 248.354 527.543C188.454 518.353 402.686 154.008 463.472 185.387C535.957 222.806 416.482 472.51 361.044 485.904C316.693 496.619 482.109 254.627 592.8 310.01" stroke="black" stroke-width="8" stroke-linecap="round"/>
<path d="M600.295 290.55C601.377 288.615 604.334 289.614 604.021 291.808L603.445 295.85C603.258 297.166 604.383 298.296 605.7 298.113L621.415 295.934C623.535 295.64 624.573 298.432 622.775 299.594L611.098 307.145C609.743 308.021 609.93 310.057 611.421 310.673L619.37 313.955C621.198 314.709 620.939 317.375 619.001 317.764L613.798 318.809C612.623 319.046 611.918 320.256 612.292 321.395L613.768 325.888C614.332 327.605 612.51 329.131 610.919 328.273L604.575 324.853C602.947 323.975 601.103 325.587 601.754 327.318L605.244 336.584C606.001 338.594 603.489 340.221 601.964 338.708L592.1 328.925C591.464 328.295 590.486 328.164 589.707 328.605L578.588 334.895C576.735 335.943 574.745 333.756 575.963 332.01L582.511 322.624C583.11 321.765 582.946 320.59 582.134 319.929L570.716 310.634C569.257 309.446 570.097 307.083 571.979 307.083H580.775C581.769 307.083 582.612 306.353 582.754 305.369L584.133 295.806C584.432 293.738 587.303 293.455 587.999 295.425L590.233 301.75C590.806 303.372 593.025 303.561 593.865 302.059L600.295 290.55Z" fill="#CD4631"/>
</svg>
