<svg width="40" height="40" viewBox="0 0 40 40" fill="none" xmlns="http://www.w3.org/2000/svg">
<path fill-rule="evenodd" clip-rule="evenodd" d="M20 39.7499C9.09373 39.7499 0.25 30.9083 0.25 19.9999C0.25 9.09352 9.09365 0.249878 20 0.249878C30.9064 0.249878 39.75 9.09352 39.75 19.9999C39.75 30.9083 30.9063 39.7499 20 39.7499ZM2.75 19.9999C2.75 29.5274 10.4743 37.2499 20 37.2499C29.5257 37.2499 37.25 29.5274 37.25 19.9999C37.25 10.4742 29.5256 2.74988 20 2.74988C10.4744 2.74988 2.75 10.4742 2.75 19.9999Z" fill="black"/>
<path fill-rule="evenodd" clip-rule="evenodd" d="M16.2295 27.8239C15.7424 27.3347 15.7441 26.5432 16.2334 26.0561L22.3157 19.9999L16.2334 13.9437C15.7441 13.4566 15.7424 12.6651 16.2295 12.1759C16.7166 11.6867 17.5081 11.685 17.9973 12.1721L24.9693 19.1141C25.2049 19.3487 25.3373 19.6674 25.3373 19.9999C25.3373 20.3323 25.2049 20.6511 24.9693 20.8857L17.9973 27.8277C17.5081 28.3148 16.7166 28.3131 16.2295 27.8239Z" fill="black"/>
</svg>
