<svg width="40" height="40" viewBox="0 0 40 40" fill="none" xmlns="http://www.w3.org/2000/svg">
<path fill-rule="evenodd" clip-rule="evenodd" d="M20 0.0583496C30.9063 0.0583496 39.75 8.89991 39.75 19.8083C39.75 30.7147 30.9064 39.5583 20 39.5583C9.09365 39.5583 0.25 30.7147 0.25 19.8083C0.25 8.89991 9.09373 0.0583496 20 0.0583496ZM37.25 19.8083C37.25 10.2808 29.5257 2.55835 20 2.55835C10.4743 2.55835 2.75 10.2808 2.75 19.8083C2.75 29.334 10.4744 37.0583 20 37.0583C29.5256 37.0583 37.25 29.334 37.25 19.8083Z" fill="#CD4631"/>
<path fill-rule="evenodd" clip-rule="evenodd" d="M23.7705 11.984C24.2576 12.4732 24.2559 13.2647 23.7667 13.7518L17.6843 19.808L23.7667 25.8642C24.2559 26.3513 24.2576 27.1427 23.7705 27.6319C23.2834 28.1212 22.4919 28.1229 22.0027 27.6358L15.0307 20.6938C14.7951 20.4592 14.6627 20.1404 14.6627 19.808C14.6627 19.4755 14.7951 19.1568 15.0307 18.9222L22.0027 11.9802C22.4919 11.4931 23.2834 11.4948 23.7705 11.984Z" fill="#CD4631"/>
</svg>
