<svg width="40" height="40" viewBox="0 0 40 40" fill="none" xmlns="http://www.w3.org/2000/svg">
<path fill-rule="evenodd" clip-rule="evenodd" d="M20 0.250122C30.9063 0.250122 39.75 9.09168 39.75 20.0001C39.75 30.9065 30.9064 39.7501 20 39.7501C9.09365 39.7501 0.25 30.9065 0.25 20.0001C0.25 9.09168 9.09373 0.250122 20 0.250122ZM37.25 20.0001C37.25 10.4726 29.5257 2.75012 20 2.75012C10.4743 2.75012 2.75 10.4726 2.75 20.0001C2.75 29.5258 10.4744 37.2501 20 37.2501C29.5256 37.2501 37.25 29.5258 37.25 20.0001Z" fill="black"/>
<path fill-rule="evenodd" clip-rule="evenodd" d="M23.7705 12.1761C24.2576 12.6653 24.2559 13.4568 23.7666 13.9439L17.6843 20.0001L23.7666 26.0563C24.2559 26.5434 24.2576 27.3349 23.7705 27.8241C23.2834 28.3133 22.4919 28.315 22.0027 27.8279L15.0307 20.8859C14.7951 20.6513 14.6627 20.3326 14.6627 20.0001C14.6627 19.6677 14.7951 19.3489 15.0307 19.1143L22.0027 12.1723C22.4919 11.6852 23.2834 11.6869 23.7705 12.1761Z" fill="black"/>
</svg>
