<svg width="208" height="213" viewBox="0 0 208 213" fill="none" xmlns="http://www.w3.org/2000/svg">
<path d="M133.373 9.65016C143.974 12.0115 153.621 14.2222 163.418 16.3826C160.504 10.4038 148.395 8.04243 149.551 3.26946C152.314 -1.90545 157.489 0.807614 160.303 2.56608C165.277 5.73131 170.301 9.29847 174.069 13.7198C187.232 29.1942 194.166 48.0349 200.898 66.8755C205.269 79.235 208.485 91.7955 207.731 104.959C205.169 150.679 184.67 185.647 142.567 204.89C94.6869 226.745 36.7079 201.473 17.6663 152.337C15.6566 147.162 12.9938 142.238 10.2807 137.365C3.04591 124.503 -1.37536 111.189 1.08649 96.1665C3.04592 84.008 8.673 74.0099 17.4151 65.5693C19.3745 63.6601 21.4344 61.5499 22.6905 59.1383C33.8441 38.087 51.1775 24.4212 73.4849 16.885C85.7439 12.7149 98.0531 8.59509 110.513 5.02792C114.985 3.77188 120.009 4.02309 124.782 4.02309C128.801 4.22405 132.318 5.63082 133.373 9.65016ZM141.763 81.1442C131.916 122.945 104.032 142.741 65.2452 150.227C67.6568 157.512 71.1738 161.531 77.9062 163.742C81.6743 164.998 85.6936 165.852 89.6125 166.053C130.66 168.163 160.554 126.06 145.28 87.8264C144.426 85.7664 143.17 83.807 141.763 81.1442ZM100.515 200.267C136.438 202.076 162.664 185.597 180.902 156.004C200.898 123.498 200.546 89.6351 184.72 55.3702C180.902 57.2291 177.385 58.9876 173.717 60.7963C174.923 62.7557 175.827 64.263 176.782 65.8205C182.761 75.9191 186.68 86.721 187.735 98.4776C189.594 119.428 183.112 137.917 170.301 154.296C155.68 172.986 135.885 184.944 115.236 195.695C112.272 197.253 108.855 197.856 105.589 198.911C103.881 199.313 102.173 199.765 100.515 200.267ZM135.332 35.5749C145.431 38.4387 154.977 42.7595 163.166 49.7431C164.121 50.547 165.829 51.0996 166.985 50.7982C171.808 49.7431 182.057 47.231 179.947 44.317C175.777 32.0078 152.164 20.2512 135.383 21.9092C135.333 26.1797 135.332 30.5005 135.332 35.5749ZM124.782 81.6466C110.161 76.0195 74.7912 100.588 71.6259 118.072C86.6985 115.711 114.231 98.5781 122.471 86.2689C123.425 84.8621 124.028 83.2041 124.782 81.6466ZM126.389 68.9857C119.858 64.9161 112.071 62.5548 104.786 64.6147C96.2946 67.0263 87.7033 70.8446 80.5187 75.9191C69.2143 83.8573 61.2761 95.0612 57.2065 108.476C56.3022 111.49 55.3978 115.007 58.5631 118.474C60.0703 115.711 61.2761 113.249 62.6327 110.887C76.9516 86.5201 96.8473 70.7442 126.389 68.9857ZM111.066 21.3063C87.7033 20.3014 70.1187 31.0029 54.0916 47.2812C60.3215 46.5276 65.6472 45.9247 70.9728 45.2213C73.3342 44.9199 75.9467 45.0706 77.9062 44.0155C87.3014 38.9914 97.2492 35.5749 107.448 33.9672C108.704 29.5961 109.86 25.627 111.066 21.3063ZM163.418 140.831C181.655 117.77 178.993 85.666 161.659 64.7654C160.956 63.9113 159.8 62.9064 158.795 62.806C154.073 62.3538 149.35 62.2031 144.677 61.9518C145.331 63.3084 145.984 63.7606 146.637 64.2127C171.959 80.4911 178.892 103.15 167.035 130.783C165.628 134.099 164.623 137.515 163.418 140.831ZM54.594 130.984C46.8567 127.417 43.2896 121.488 43.5408 113.6C43.6413 110.234 44.4451 106.868 45.3997 103.653C48.1128 94.2573 53.5389 86.3693 59.5177 78.7828C60.2713 77.8282 60.5727 76.5722 61.0752 75.4669C49.0674 81.2447 34.4973 111.54 39.3707 132.793C43.5408 134.451 48.2635 136.31 53.0365 138.169C53.6394 136.762 53.9911 136.259 54.0413 135.707C54.2925 134.25 54.393 132.893 54.594 130.984ZM63.9892 137.867C84.1864 134.853 100.615 126.513 113.829 111.993C106.142 115.962 98.857 120.885 91.0193 124.453C82.9303 128.12 74.2385 130.482 64.9438 133.747C64.8935 133.999 64.5418 135.456 63.9892 137.867ZM82.227 178.613C99.0579 181.276 115.286 178.965 130.459 171.328C134.679 169.218 138.146 165.55 141.964 162.586C141.663 161.983 141.311 161.431 141.01 160.828C123.274 172.986 103.228 177.106 82.227 178.613ZM61.2761 166.103C58.6636 160.677 56.1515 155.502 53.4887 149.925C50.1727 149.222 46.4046 148.418 42.335 147.564C45.5505 159.019 48.6655 162.084 61.2761 166.103ZM35.7533 72.5026C44.4451 67.2775 53.2375 61.9519 62.5322 56.3248C48.9167 55.0687 40.1243 60.5953 35.7533 72.5026ZM10.4315 115.359C11.1348 106.064 11.788 97.6235 12.5416 88.0273C8.72324 97.3221 7.7184 105.712 10.4315 115.359ZM126.239 25.9787C119.607 26.4309 119.406 26.6821 118.602 33.2136C120.461 33.4145 122.32 33.6155 124.932 33.9169C125.385 31.1536 125.787 28.8928 126.239 25.9787Z" fill="black"/>
</svg>
